<mxfile host="app.diagrams.net" modified="2024-05-04T09:48:24.951Z" agent="Mozilla/5.0 (Windows NT 10.0; Win64; x64) AppleWebKit/537.36 (KHTML, like Gecko) Chrome/124.0.0.0 Safari/537.36" etag="D3fto9y4ddBmXwUXqXhw" version="24.3.1" type="github">
  <diagram name="Page-1" id="822b0af5-4adb-64df-f703-e8dfc1f81529">
    <mxGraphModel dx="2833" dy="1873" grid="1" gridSize="10" guides="1" tooltips="1" connect="1" arrows="1" fold="1" page="1" pageScale="1" pageWidth="1100" pageHeight="850" background="none" math="0" shadow="0">
      <root>
        <mxCell id="0" />
        <mxCell id="1" parent="0" />
        <mxCell id="PBtX4HCvhkAMB2_3Ykh0-14" style="edgeStyle=orthogonalEdgeStyle;rounded=0;orthogonalLoop=1;jettySize=auto;html=1;entryX=0.25;entryY=0;entryDx=0;entryDy=0;fillColor=#ffe6cc;strokeColor=#d79b00;strokeWidth=3;exitX=0;exitY=0.25;exitDx=0;exitDy=0;" parent="1" source="PBtX4HCvhkAMB2_3Ykh0-4" target="oog65j6L7B87XHzVz9v1-12" edge="1">
          <mxGeometry relative="1" as="geometry" />
        </mxCell>
        <mxCell id="oog65j6L7B87XHzVz9v1-75" style="edgeStyle=orthogonalEdgeStyle;rounded=0;orthogonalLoop=1;jettySize=auto;html=1;entryX=0;entryY=0.5;entryDx=0;entryDy=0;fontColor=#FFFFFF;exitX=0;exitY=0.5;exitDx=0;exitDy=0;fillColor=#f9f7ed;shadow=0;strokeColor=#000000;" parent="1" source="oog65j6L7B87XHzVz9v1-12" target="oog65j6L7B87XHzVz9v1-2" edge="1">
          <mxGeometry relative="1" as="geometry">
            <mxPoint x="390" y="660" as="sourcePoint" />
          </mxGeometry>
        </mxCell>
        <mxCell id="PBtX4HCvhkAMB2_3Ykh0-20" value="Verify" style="edgeLabel;html=1;align=center;verticalAlign=middle;resizable=0;points=[];" parent="oog65j6L7B87XHzVz9v1-75" vertex="1" connectable="0">
          <mxGeometry x="0.3692" y="-1" relative="1" as="geometry">
            <mxPoint as="offset" />
          </mxGeometry>
        </mxCell>
        <mxCell id="oog65j6L7B87XHzVz9v1-72" style="edgeStyle=orthogonalEdgeStyle;rounded=0;orthogonalLoop=1;jettySize=auto;html=1;fontColor=#FFFFFF;strokeColor=default;entryX=0.75;entryY=0;entryDx=0;entryDy=0;exitX=0;exitY=0.25;exitDx=0;exitDy=0;" parent="1" source="oog65j6L7B87XHzVz9v1-6" target="oog65j6L7B87XHzVz9v1-2" edge="1">
          <mxGeometry relative="1" as="geometry">
            <mxPoint x="1681" y="-165" as="sourcePoint" />
          </mxGeometry>
        </mxCell>
        <mxCell id="VzUCPUByovG9wuieKJeH-6" value="Verify" style="edgeLabel;html=1;align=center;verticalAlign=middle;resizable=0;points=[];" vertex="1" connectable="0" parent="oog65j6L7B87XHzVz9v1-72">
          <mxGeometry x="-0.5152" y="-3" relative="1" as="geometry">
            <mxPoint as="offset" />
          </mxGeometry>
        </mxCell>
        <mxCell id="oog65j6L7B87XHzVz9v1-60" style="edgeStyle=orthogonalEdgeStyle;rounded=0;orthogonalLoop=1;jettySize=auto;html=1;exitX=0.75;exitY=1;exitDx=0;exitDy=0;fontColor=#FFFFFF;strokeColor=default;entryX=0;entryY=0.25;entryDx=0;entryDy=0;startArrow=classic;startFill=1;" parent="1" source="oog65j6L7B87XHzVz9v1-15" target="oog65j6L7B87XHzVz9v1-9" edge="1">
          <mxGeometry relative="1" as="geometry">
            <mxPoint x="829" y="475" as="sourcePoint" />
            <mxPoint x="1265" y="300" as="targetPoint" />
          </mxGeometry>
        </mxCell>
        <mxCell id="oog65j6L7B87XHzVz9v1-87" value="Text" style="edgeLabel;html=1;align=center;verticalAlign=middle;resizable=0;points=[];fontColor=#FFFFFF;" parent="oog65j6L7B87XHzVz9v1-60" vertex="1" connectable="0">
          <mxGeometry x="-0.2983" y="-6" relative="1" as="geometry">
            <mxPoint as="offset" />
          </mxGeometry>
        </mxCell>
        <mxCell id="oog65j6L7B87XHzVz9v1-88" value="&lt;span style=&quot;&quot;&gt;&lt;font color=&quot;#000000&quot;&gt;Events&lt;/font&gt;&lt;/span&gt;" style="edgeLabel;html=1;align=center;verticalAlign=middle;resizable=0;points=[];fontColor=#FFFFFF;labelBackgroundColor=default;labelBorderColor=none;" parent="oog65j6L7B87XHzVz9v1-60" vertex="1" connectable="0">
          <mxGeometry x="-0.2645" y="-1" relative="1" as="geometry">
            <mxPoint as="offset" />
          </mxGeometry>
        </mxCell>
        <mxCell id="oog65j6L7B87XHzVz9v1-73" style="edgeStyle=orthogonalEdgeStyle;rounded=0;orthogonalLoop=1;jettySize=auto;html=1;entryX=0.75;entryY=1;entryDx=0;entryDy=0;fontColor=#FFFFFF;strokeColor=default;" parent="1" source="oog65j6L7B87XHzVz9v1-15" target="oog65j6L7B87XHzVz9v1-2" edge="1">
          <mxGeometry relative="1" as="geometry" />
        </mxCell>
        <mxCell id="PBtX4HCvhkAMB2_3Ykh0-23" value="Verify" style="edgeLabel;html=1;align=center;verticalAlign=middle;resizable=0;points=[];" parent="oog65j6L7B87XHzVz9v1-73" vertex="1" connectable="0">
          <mxGeometry x="-0.1642" y="-2" relative="1" as="geometry">
            <mxPoint as="offset" />
          </mxGeometry>
        </mxCell>
        <mxCell id="oog65j6L7B87XHzVz9v1-74" style="edgeStyle=orthogonalEdgeStyle;rounded=0;orthogonalLoop=1;jettySize=auto;html=1;fontColor=#FFFFFF;strokeColor=default;entryX=0.25;entryY=1;entryDx=0;entryDy=0;" parent="1" source="oog65j6L7B87XHzVz9v1-9" target="oog65j6L7B87XHzVz9v1-2" edge="1">
          <mxGeometry relative="1" as="geometry" />
        </mxCell>
        <mxCell id="oog65j6L7B87XHzVz9v1-86" style="edgeStyle=orthogonalEdgeStyle;rounded=0;orthogonalLoop=1;jettySize=auto;html=1;fontColor=#FFFFFF;strokeColor=default;entryX=0.25;entryY=0;entryDx=0;entryDy=0;" parent="1" source="oog65j6L7B87XHzVz9v1-83" target="oog65j6L7B87XHzVz9v1-9" edge="1">
          <mxGeometry relative="1" as="geometry" />
        </mxCell>
        <mxCell id="oog65j6L7B87XHzVz9v1-95" style="edgeStyle=orthogonalEdgeStyle;rounded=0;orthogonalLoop=1;jettySize=auto;html=1;fontColor=#FFFFFF;strokeColor=default;exitX=0.75;exitY=0;exitDx=0;exitDy=0;entryX=0.25;entryY=1;entryDx=0;entryDy=0;startArrow=classic;startFill=1;endArrow=classic;endFill=1;" parent="1" source="oog65j6L7B87XHzVz9v1-12" target="oog65j6L7B87XHzVz9v1-15" edge="1">
          <mxGeometry relative="1" as="geometry" />
        </mxCell>
        <mxCell id="oog65j6L7B87XHzVz9v1-96" value="&lt;font style=&quot;&quot;&gt;Events&lt;/font&gt;" style="edgeLabel;html=1;align=center;verticalAlign=middle;resizable=0;points=[];fontColor=#000000;labelBackgroundColor=#FFFFFF;" parent="oog65j6L7B87XHzVz9v1-95" vertex="1" connectable="0">
          <mxGeometry x="0.2064" y="-3" relative="1" as="geometry">
            <mxPoint as="offset" />
          </mxGeometry>
        </mxCell>
        <mxCell id="oog65j6L7B87XHzVz9v1-97" style="edgeStyle=orthogonalEdgeStyle;rounded=0;orthogonalLoop=1;jettySize=auto;html=1;entryX=1;entryY=0.5;entryDx=0;entryDy=0;fontColor=#FFFFFF;strokeColor=default;endArrow=classic;endFill=1;startArrow=classic;startFill=1;" parent="1" source="oog65j6L7B87XHzVz9v1-83" target="oog65j6L7B87XHzVz9v1-15" edge="1">
          <mxGeometry relative="1" as="geometry" />
        </mxCell>
        <mxCell id="PBtX4HCvhkAMB2_3Ykh0-24" value="Events" style="edgeLabel;html=1;align=center;verticalAlign=middle;resizable=0;points=[];" parent="oog65j6L7B87XHzVz9v1-97" vertex="1" connectable="0">
          <mxGeometry x="-0.0072" relative="1" as="geometry">
            <mxPoint as="offset" />
          </mxGeometry>
        </mxCell>
        <mxCell id="oog65j6L7B87XHzVz9v1-103" style="edgeStyle=orthogonalEdgeStyle;rounded=0;orthogonalLoop=1;jettySize=auto;html=1;fontColor=#FFFFFF;strokeColor=default;exitX=0.5;exitY=1;exitDx=0;exitDy=0;entryX=1;entryY=0.5;entryDx=0;entryDy=0;" parent="1" source="oog65j6L7B87XHzVz9v1-101" target="oog65j6L7B87XHzVz9v1-68" edge="1">
          <mxGeometry relative="1" as="geometry" />
        </mxCell>
        <mxCell id="VzUCPUByovG9wuieKJeH-23" value="Task to build&amp;nbsp;&lt;div&gt;and distribute Analysis&lt;/div&gt;" style="edgeLabel;html=1;align=center;verticalAlign=middle;resizable=0;points=[];" vertex="1" connectable="0" parent="oog65j6L7B87XHzVz9v1-103">
          <mxGeometry x="-0.3258" relative="1" as="geometry">
            <mxPoint as="offset" />
          </mxGeometry>
        </mxCell>
        <mxCell id="oog65j6L7B87XHzVz9v1-104" style="edgeStyle=orthogonalEdgeStyle;rounded=0;orthogonalLoop=1;jettySize=auto;html=1;entryX=0;entryY=0.5;entryDx=0;entryDy=0;fontColor=#FFFFFF;strokeColor=default;exitX=0.75;exitY=0;exitDx=0;exitDy=0;" parent="1" source="oog65j6L7B87XHzVz9v1-9" target="oog65j6L7B87XHzVz9v1-101" edge="1">
          <mxGeometry relative="1" as="geometry" />
        </mxCell>
        <mxCell id="VzUCPUByovG9wuieKJeH-26" value="Distribute Tasks" style="edgeLabel;html=1;align=center;verticalAlign=middle;resizable=0;points=[];" vertex="1" connectable="0" parent="oog65j6L7B87XHzVz9v1-104">
          <mxGeometry x="-0.0656" y="-2" relative="1" as="geometry">
            <mxPoint as="offset" />
          </mxGeometry>
        </mxCell>
        <mxCell id="PBtX4HCvhkAMB2_3Ykh0-3" value="" style="group;fillColor=#fad7ac;strokeColor=#b46504;fillStyle=hatch;" parent="1" vertex="1" connectable="0">
          <mxGeometry x="1122" y="-403" width="280" height="110" as="geometry" />
        </mxCell>
        <mxCell id="PBtX4HCvhkAMB2_3Ykh0-4" value="" style="rounded=0;whiteSpace=wrap;html=1;fillColor=#ffe6cc;fillStyle=hatch;strokeColor=#d79b00;" parent="PBtX4HCvhkAMB2_3Ykh0-3" vertex="1">
          <mxGeometry width="280" height="110" as="geometry" />
        </mxCell>
        <mxCell id="PBtX4HCvhkAMB2_3Ykh0-5" value="&lt;b&gt;Gateway&lt;/b&gt;" style="rounded=0;whiteSpace=wrap;html=1;fillColor=#ffe6cc;strokeColor=#d79b00;" parent="PBtX4HCvhkAMB2_3Ykh0-3" vertex="1">
          <mxGeometry x="80" y="25" width="120" height="60" as="geometry" />
        </mxCell>
        <mxCell id="PBtX4HCvhkAMB2_3Ykh0-9" style="edgeStyle=orthogonalEdgeStyle;rounded=0;orthogonalLoop=1;jettySize=auto;html=1;entryX=0.5;entryY=0;entryDx=0;entryDy=0;exitX=1.009;exitY=0.505;exitDx=0;exitDy=0;exitPerimeter=0;" parent="1" source="PBtX4HCvhkAMB2_3Ykh0-2" target="PBtX4HCvhkAMB2_3Ykh0-4" edge="1">
          <mxGeometry relative="1" as="geometry">
            <mxPoint x="1260" y="-435" as="sourcePoint" />
          </mxGeometry>
        </mxCell>
        <mxCell id="PBtX4HCvhkAMB2_3Ykh0-2" value="Firewall&amp;nbsp;" style="rounded=0;whiteSpace=wrap;html=1;fillColor=#f8cecc;strokeColor=#b85450;dashed=1;dashPattern=1 4;fontStyle=1;horizontal=0;rotation=90;" parent="1" vertex="1">
          <mxGeometry x="1258.17" y="-1096.98" width="20" height="1300.46" as="geometry" />
        </mxCell>
        <mxCell id="PBtX4HCvhkAMB2_3Ykh0-10" style="edgeStyle=orthogonalEdgeStyle;rounded=0;orthogonalLoop=1;jettySize=auto;html=1;fillColor=#ffe6cc;strokeColor=#d79b00;strokeWidth=3;" parent="1" source="PBtX4HCvhkAMB2_3Ykh0-4" target="oog65j6L7B87XHzVz9v1-6" edge="1">
          <mxGeometry relative="1" as="geometry" />
        </mxCell>
        <mxCell id="PBtX4HCvhkAMB2_3Ykh0-11" style="edgeStyle=orthogonalEdgeStyle;rounded=0;orthogonalLoop=1;jettySize=auto;html=1;entryX=0.5;entryY=0;entryDx=0;entryDy=0;exitX=1;exitY=0.75;exitDx=0;exitDy=0;fillColor=#ffe6cc;strokeColor=#d79b00;strokeWidth=3;" parent="1" source="PBtX4HCvhkAMB2_3Ykh0-4" target="oog65j6L7B87XHzVz9v1-9" edge="1">
          <mxGeometry relative="1" as="geometry" />
        </mxCell>
        <mxCell id="PBtX4HCvhkAMB2_3Ykh0-12" style="edgeStyle=orthogonalEdgeStyle;rounded=0;orthogonalLoop=1;jettySize=auto;html=1;entryX=0.5;entryY=0;entryDx=0;entryDy=0;fillColor=#ffe6cc;strokeColor=#d79b00;exitX=0;exitY=0.75;exitDx=0;exitDy=0;strokeWidth=3;" parent="1" source="PBtX4HCvhkAMB2_3Ykh0-4" target="oog65j6L7B87XHzVz9v1-15" edge="1">
          <mxGeometry relative="1" as="geometry" />
        </mxCell>
        <mxCell id="PBtX4HCvhkAMB2_3Ykh0-15" style="edgeStyle=orthogonalEdgeStyle;rounded=0;orthogonalLoop=1;jettySize=auto;html=1;strokeWidth=3;fillColor=#ffe6cc;strokeColor=#d79b00;" parent="1" source="PBtX4HCvhkAMB2_3Ykh0-4" target="oog65j6L7B87XHzVz9v1-83" edge="1">
          <mxGeometry relative="1" as="geometry" />
        </mxCell>
        <mxCell id="PBtX4HCvhkAMB2_3Ykh0-31" style="edgeStyle=orthogonalEdgeStyle;rounded=0;orthogonalLoop=1;jettySize=auto;html=1;entryX=0.25;entryY=0;entryDx=0;entryDy=0;fillColor=#ffe6cc;strokeColor=#d79b00;strokeWidth=3;" parent="1" source="PBtX4HCvhkAMB2_3Ykh0-4" target="oog65j6L7B87XHzVz9v1-2" edge="1">
          <mxGeometry relative="1" as="geometry" />
        </mxCell>
        <mxCell id="VzUCPUByovG9wuieKJeH-3" style="edgeStyle=orthogonalEdgeStyle;rounded=0;orthogonalLoop=1;jettySize=auto;html=1;entryX=0.5;entryY=0;entryDx=0;entryDy=0;startArrow=classic;startFill=1;endArrow=none;endFill=0;" edge="1" parent="1" source="oog65j6L7B87XHzVz9v1-9" target="oog65j6L7B87XHzVz9v1-68">
          <mxGeometry relative="1" as="geometry" />
        </mxCell>
        <mxCell id="VzUCPUByovG9wuieKJeH-5" style="edgeStyle=orthogonalEdgeStyle;rounded=0;orthogonalLoop=1;jettySize=auto;html=1;entryX=0.5;entryY=1;entryDx=0;entryDy=0;" edge="1" parent="1" source="oog65j6L7B87XHzVz9v1-101" target="oog65j6L7B87XHzVz9v1-6">
          <mxGeometry relative="1" as="geometry" />
        </mxCell>
        <mxCell id="VzUCPUByovG9wuieKJeH-25" value="Task to create&amp;nbsp;&lt;div&gt;analysis keys&lt;/div&gt;" style="edgeLabel;html=1;align=center;verticalAlign=middle;resizable=0;points=[];" vertex="1" connectable="0" parent="VzUCPUByovG9wuieKJeH-5">
          <mxGeometry x="0.1164" y="-4" relative="1" as="geometry">
            <mxPoint as="offset" />
          </mxGeometry>
        </mxCell>
        <mxCell id="oog65j6L7B87XHzVz9v1-6" value="" style="rounded=0;whiteSpace=wrap;html=1;fillColor=#dae8fc;strokeColor=#6c8ebf;container=0;" parent="1" vertex="1">
          <mxGeometry x="1684" y="-287" width="166" height="147" as="geometry" />
        </mxCell>
        <mxCell id="oog65j6L7B87XHzVz9v1-30" value="Public Key" style="rounded=0;whiteSpace=wrap;html=1;container=0;" parent="1" vertex="1">
          <mxGeometry x="1694" y="-170" width="146" height="23" as="geometry" />
        </mxCell>
        <mxCell id="oog65j6L7B87XHzVz9v1-7" value="&lt;b&gt;Key Service&lt;/b&gt;" style="rounded=0;whiteSpace=wrap;html=1;fillColor=#e1d5e7;strokeColor=#9673a6;container=0;" parent="1" vertex="1">
          <mxGeometry x="1694" y="-237.87" width="146" height="57.73" as="geometry" />
        </mxCell>
        <mxCell id="oog65j6L7B87XHzVz9v1-33" value="Analysis Key" style="rounded=0;whiteSpace=wrap;html=1;container=0;" parent="1" vertex="1">
          <mxGeometry x="1694" y="-275" width="146" height="27" as="geometry" />
        </mxCell>
        <mxCell id="PBtX4HCvhkAMB2_3Ykh0-16" style="edgeStyle=orthogonalEdgeStyle;rounded=0;orthogonalLoop=1;jettySize=auto;html=1;entryX=1;entryY=0.5;entryDx=0;entryDy=0;exitX=0.5;exitY=1;exitDx=0;exitDy=0;" parent="1" source="oog65j6L7B87XHzVz9v1-29" target="oog65j6L7B87XHzVz9v1-23" edge="1">
          <mxGeometry relative="1" as="geometry" />
        </mxCell>
        <mxCell id="PBtX4HCvhkAMB2_3Ykh0-17" value="Access" style="edgeLabel;html=1;align=center;verticalAlign=middle;resizable=0;points=[];" parent="PBtX4HCvhkAMB2_3Ykh0-16" vertex="1" connectable="0">
          <mxGeometry x="0.1956" y="1" relative="1" as="geometry">
            <mxPoint as="offset" />
          </mxGeometry>
        </mxCell>
        <mxCell id="VzUCPUByovG9wuieKJeH-7" value="" style="group" vertex="1" connectable="0" parent="1">
          <mxGeometry x="1220" y="-160" width="170" height="130" as="geometry" />
        </mxCell>
        <mxCell id="oog65j6L7B87XHzVz9v1-83" value="" style="rounded=0;whiteSpace=wrap;html=1;fillColor=#dae8fc;strokeColor=#6c8ebf;container=0;" parent="VzUCPUByovG9wuieKJeH-7" vertex="1">
          <mxGeometry width="170" height="130" as="geometry" />
        </mxCell>
        <mxCell id="oog65j6L7B87XHzVz9v1-84" value="&lt;b&gt;User Interface (UI)&lt;/b&gt;" style="rounded=0;whiteSpace=wrap;html=1;fillColor=#e1d5e7;strokeColor=#9673a6;container=0;" parent="VzUCPUByovG9wuieKJeH-7" vertex="1">
          <mxGeometry x="10" y="39" width="148.33" height="45.45" as="geometry" />
        </mxCell>
        <mxCell id="oog65j6L7B87XHzVz9v1-29" value="Analysis&amp;nbsp;&lt;br&gt;Results" style="rounded=0;whiteSpace=wrap;html=1;container=0;" parent="VzUCPUByovG9wuieKJeH-7" vertex="1">
          <mxGeometry x="10" y="90" width="61.33" height="30" as="geometry" />
        </mxCell>
        <mxCell id="oog65j6L7B87XHzVz9v1-27" value="Public Key" style="rounded=0;whiteSpace=wrap;html=1;container=0;" parent="VzUCPUByovG9wuieKJeH-7" vertex="1">
          <mxGeometry x="10" y="11" width="147.33" height="20" as="geometry" />
        </mxCell>
        <mxCell id="oog65j6L7B87XHzVz9v1-71" value="Analysis&amp;nbsp;&lt;br&gt;Files" style="rounded=0;whiteSpace=wrap;html=1;container=0;" parent="VzUCPUByovG9wuieKJeH-7" vertex="1">
          <mxGeometry x="86" y="90" width="71.33" height="30" as="geometry" />
        </mxCell>
        <mxCell id="VzUCPUByovG9wuieKJeH-8" value="" style="group" vertex="1" connectable="0" parent="1">
          <mxGeometry x="960" y="-130" width="142" height="70" as="geometry" />
        </mxCell>
        <mxCell id="oog65j6L7B87XHzVz9v1-15" value="" style="rounded=0;whiteSpace=wrap;html=1;fillColor=#dae8fc;strokeColor=#6c8ebf;container=0;" parent="VzUCPUByovG9wuieKJeH-8" vertex="1">
          <mxGeometry width="142" height="70" as="geometry" />
        </mxCell>
        <mxCell id="oog65j6L7B87XHzVz9v1-16" value="&lt;b&gt;Message Broker&amp;nbsp;&lt;br&gt;Service&lt;/b&gt;" style="rounded=0;whiteSpace=wrap;html=1;fillColor=#e1d5e7;strokeColor=#9673a6;container=0;" parent="VzUCPUByovG9wuieKJeH-8" vertex="1">
          <mxGeometry x="10" y="10" width="120" height="50" as="geometry" />
        </mxCell>
        <mxCell id="VzUCPUByovG9wuieKJeH-9" value="" style="group" vertex="1" connectable="0" parent="1">
          <mxGeometry x="780" y="-230" width="140" height="60" as="geometry" />
        </mxCell>
        <mxCell id="oog65j6L7B87XHzVz9v1-2" value="" style="rounded=0;whiteSpace=wrap;html=1;fillColor=#dae8fc;strokeColor=#6c8ebf;container=0;" parent="VzUCPUByovG9wuieKJeH-9" vertex="1">
          <mxGeometry width="140" height="60" as="geometry" />
        </mxCell>
        <mxCell id="oog65j6L7B87XHzVz9v1-3" value="&lt;b&gt;Auth Service&lt;/b&gt;" style="rounded=0;whiteSpace=wrap;html=1;fillColor=#e1d5e7;strokeColor=#9673a6;container=0;" parent="VzUCPUByovG9wuieKJeH-9" vertex="1">
          <mxGeometry x="10" y="10" width="120" height="40" as="geometry" />
        </mxCell>
        <mxCell id="VzUCPUByovG9wuieKJeH-10" value="" style="group" vertex="1" connectable="0" parent="1">
          <mxGeometry x="1471" y="137" width="178" height="110" as="geometry" />
        </mxCell>
        <mxCell id="oog65j6L7B87XHzVz9v1-68" value="" style="rounded=0;whiteSpace=wrap;html=1;fillColor=#dae8fc;strokeColor=#6c8ebf;container=0;movable=1;resizable=1;rotatable=1;deletable=1;editable=1;locked=0;connectable=1;" parent="VzUCPUByovG9wuieKJeH-10" vertex="1">
          <mxGeometry width="178" height="110" as="geometry" />
        </mxCell>
        <mxCell id="oog65j6L7B87XHzVz9v1-69" value="&lt;b&gt;Analyse Service&lt;/b&gt;" style="rounded=0;whiteSpace=wrap;html=1;container=0;fillColor=#e1d5e7;strokeColor=#9673a6;movable=1;resizable=1;rotatable=1;deletable=1;editable=1;locked=0;connectable=1;" parent="VzUCPUByovG9wuieKJeH-10" vertex="1">
          <mxGeometry x="20" y="10" width="138" height="40" as="geometry" />
        </mxCell>
        <mxCell id="PBtX4HCvhkAMB2_3Ykh0-28" value="Analysis&amp;nbsp;&lt;br&gt;Files" style="rounded=0;whiteSpace=wrap;html=1;container=0;movable=1;resizable=1;rotatable=1;deletable=1;editable=1;locked=0;connectable=1;" parent="VzUCPUByovG9wuieKJeH-10" vertex="1">
          <mxGeometry x="20" y="62" width="140" height="35" as="geometry" />
        </mxCell>
        <mxCell id="VzUCPUByovG9wuieKJeH-11" value="" style="group" vertex="1" connectable="0" parent="1">
          <mxGeometry x="1470" y="20" width="180" height="65" as="geometry" />
        </mxCell>
        <mxCell id="oog65j6L7B87XHzVz9v1-9" value="" style="rounded=0;whiteSpace=wrap;html=1;fillColor=#dae8fc;strokeColor=#6c8ebf;container=0;" parent="VzUCPUByovG9wuieKJeH-11" vertex="1">
          <mxGeometry width="180" height="65" as="geometry" />
        </mxCell>
        <mxCell id="oog65j6L7B87XHzVz9v1-25" value="&lt;b&gt;Core Service&lt;/b&gt;" style="rounded=0;whiteSpace=wrap;html=1;fillColor=#e1d5e7;strokeColor=#9673a6;container=0;" parent="VzUCPUByovG9wuieKJeH-11" vertex="1">
          <mxGeometry x="7.910000000000082" y="12" width="164.18" height="43" as="geometry" />
        </mxCell>
        <mxCell id="VzUCPUByovG9wuieKJeH-12" value="" style="group" vertex="1" connectable="0" parent="1">
          <mxGeometry x="1697" y="-40" width="140" height="60" as="geometry" />
        </mxCell>
        <mxCell id="oog65j6L7B87XHzVz9v1-101" value="" style="rounded=0;whiteSpace=wrap;html=1;fillColor=#dae8fc;strokeColor=#6c8ebf;container=0;" parent="VzUCPUByovG9wuieKJeH-12" vertex="1">
          <mxGeometry width="140" height="60" as="geometry" />
        </mxCell>
        <mxCell id="oog65j6L7B87XHzVz9v1-102" value="&lt;b&gt;Job Service&lt;/b&gt;" style="rounded=0;whiteSpace=wrap;html=1;fillColor=#f8cecc;strokeColor=#b85450;container=0;" parent="VzUCPUByovG9wuieKJeH-12" vertex="1">
          <mxGeometry x="10" y="10" width="120" height="40" as="geometry" />
        </mxCell>
        <mxCell id="VzUCPUByovG9wuieKJeH-17" value="" style="group" vertex="1" connectable="0" parent="1">
          <mxGeometry x="670" y="96" width="150" height="160" as="geometry" />
        </mxCell>
        <mxCell id="oog65j6L7B87XHzVz9v1-12" value="" style="rounded=0;whiteSpace=wrap;html=1;fillColor=#dae8fc;strokeColor=#6c8ebf;container=0;" parent="VzUCPUByovG9wuieKJeH-17" vertex="1">
          <mxGeometry width="150" height="160" as="geometry" />
        </mxCell>
        <mxCell id="oog65j6L7B87XHzVz9v1-89" value="Analysis&amp;nbsp;&lt;br&gt;Files" style="rounded=0;whiteSpace=wrap;html=1;container=0;" parent="VzUCPUByovG9wuieKJeH-17" vertex="1">
          <mxGeometry x="20" y="111" width="111.33" height="39.64" as="geometry" />
        </mxCell>
        <mxCell id="oog65j6L7B87XHzVz9v1-23" value="Analysis&amp;nbsp;&lt;br&gt;Results" style="rounded=0;whiteSpace=wrap;html=1;container=0;" parent="VzUCPUByovG9wuieKJeH-17" vertex="1">
          <mxGeometry x="20" y="11" width="111.33" height="36" as="geometry" />
        </mxCell>
        <mxCell id="oog65j6L7B87XHzVz9v1-13" value="&lt;b&gt;Storage Service&lt;/b&gt;" style="rounded=0;whiteSpace=wrap;html=1;fillColor=#e1d5e7;strokeColor=#9673a6;container=0;" parent="VzUCPUByovG9wuieKJeH-17" vertex="1">
          <mxGeometry x="19.33000000000004" y="54.17999999999995" width="111.33" height="49.64" as="geometry" />
        </mxCell>
        <mxCell id="VzUCPUByovG9wuieKJeH-19" style="edgeStyle=orthogonalEdgeStyle;rounded=0;orthogonalLoop=1;jettySize=auto;html=1;entryX=1;entryY=0.5;entryDx=0;entryDy=0;exitX=0.25;exitY=0;exitDx=0;exitDy=0;" edge="1" parent="1" source="oog65j6L7B87XHzVz9v1-83" target="oog65j6L7B87XHzVz9v1-2">
          <mxGeometry relative="1" as="geometry" />
        </mxCell>
        <mxCell id="VzUCPUByovG9wuieKJeH-21" value="Authenticate &amp;amp; Authorize" style="edgeLabel;html=1;align=center;verticalAlign=middle;resizable=0;points=[];" vertex="1" connectable="0" parent="VzUCPUByovG9wuieKJeH-19">
          <mxGeometry x="-0.1036" y="2" relative="1" as="geometry">
            <mxPoint as="offset" />
          </mxGeometry>
        </mxCell>
        <mxCell id="oog65j6L7B87XHzVz9v1-90" style="edgeStyle=orthogonalEdgeStyle;rounded=0;orthogonalLoop=1;jettySize=auto;html=1;entryX=1;entryY=0.75;entryDx=0;entryDy=0;fontColor=#FFFFFF;strokeColor=default;exitX=0.5;exitY=1;exitDx=0;exitDy=0;startArrow=classic;startFill=1;" parent="1" source="oog65j6L7B87XHzVz9v1-71" target="oog65j6L7B87XHzVz9v1-89" edge="1">
          <mxGeometry relative="1" as="geometry" />
        </mxCell>
        <mxCell id="oog65j6L7B87XHzVz9v1-93" value="Store &amp;amp; Access" style="edgeLabel;html=1;align=center;verticalAlign=middle;resizable=0;points=[];fontColor=#000000;labelBackgroundColor=#FFFFFF;" parent="oog65j6L7B87XHzVz9v1-90" vertex="1" connectable="0">
          <mxGeometry x="0.1554" relative="1" as="geometry">
            <mxPoint as="offset" />
          </mxGeometry>
        </mxCell>
        <mxCell id="PBtX4HCvhkAMB2_3Ykh0-29" style="edgeStyle=orthogonalEdgeStyle;rounded=0;orthogonalLoop=1;jettySize=auto;html=1;entryX=1;entryY=0.25;entryDx=0;entryDy=0;" parent="1" source="PBtX4HCvhkAMB2_3Ykh0-28" target="oog65j6L7B87XHzVz9v1-89" edge="1">
          <mxGeometry relative="1" as="geometry">
            <mxPoint x="731" y="680" as="targetPoint" />
          </mxGeometry>
        </mxCell>
        <mxCell id="PBtX4HCvhkAMB2_3Ykh0-30" value="Access" style="edgeLabel;html=1;align=center;verticalAlign=middle;resizable=0;points=[];" parent="PBtX4HCvhkAMB2_3Ykh0-29" vertex="1" connectable="0">
          <mxGeometry x="-0.1208" y="5" relative="1" as="geometry">
            <mxPoint x="1" as="offset" />
          </mxGeometry>
        </mxCell>
        <mxCell id="oog65j6L7B87XHzVz9v1-65" style="edgeStyle=orthogonalEdgeStyle;rounded=0;orthogonalLoop=1;jettySize=auto;html=1;fontColor=#FFFFFF;strokeColor=default;startArrow=classic;startFill=1;entryX=0;entryY=0.5;entryDx=0;entryDy=0;" parent="1" source="oog65j6L7B87XHzVz9v1-27" target="oog65j6L7B87XHzVz9v1-30" edge="1">
          <mxGeometry relative="1" as="geometry" />
        </mxCell>
        <mxCell id="PBtX4HCvhkAMB2_3Ykh0-27" value="Store &amp;amp; Access" style="edgeLabel;html=1;align=center;verticalAlign=middle;resizable=0;points=[];" parent="oog65j6L7B87XHzVz9v1-65" vertex="1" connectable="0">
          <mxGeometry x="0.2977" relative="1" as="geometry">
            <mxPoint as="offset" />
          </mxGeometry>
        </mxCell>
        <mxCell id="VzUCPUByovG9wuieKJeH-22" style="edgeStyle=orthogonalEdgeStyle;rounded=0;orthogonalLoop=1;jettySize=auto;html=1;entryX=0.5;entryY=1;entryDx=0;entryDy=0;exitX=1;exitY=0.5;exitDx=0;exitDy=0;" edge="1" parent="1" source="oog65j6L7B87XHzVz9v1-101" target="oog65j6L7B87XHzVz9v1-12">
          <mxGeometry relative="1" as="geometry">
            <mxPoint x="1860" as="sourcePoint" />
            <Array as="points">
              <mxPoint x="1870" y="-10" />
              <mxPoint x="1870" y="276" />
              <mxPoint x="745" y="276" />
            </Array>
          </mxGeometry>
        </mxCell>
        <mxCell id="VzUCPUByovG9wuieKJeH-24" value="Task to create&lt;div&gt;analysis buckets&lt;/div&gt;" style="edgeLabel;html=1;align=center;verticalAlign=middle;resizable=0;points=[];" vertex="1" connectable="0" parent="VzUCPUByovG9wuieKJeH-22">
          <mxGeometry x="-0.789" y="2" relative="1" as="geometry">
            <mxPoint as="offset" />
          </mxGeometry>
        </mxCell>
      </root>
    </mxGraphModel>
  </diagram>
</mxfile>
